<svg xmlns="http://www.w3.org/2000/svg" viewBox="0 0 344.22 70.21"><defs><style>.cls-1{fill:#12121a;}</style></defs><g id="Layer_2" data-name="Layer 2"><g id="Layer_1-2" data-name="Layer 1"><path class="cls-1" d="M0,69.34,28,4.1,28,4C28.26,3.68,30.47.32,32.67.1s29.7,0,35.22,0a.44.44,0,0,1,.34.72A35.82,35.82,0,0,0,63,9.18L38.66,65.92s-1.76,3.84-5.18,4.15c-3.18.29-29.35,0-33,0A.44.44,0,0,1,0,69.63v-.12A.33.33,0,0,1,0,69.34Z"/><path class="cls-1" d="M50.14,49,70.21,3.53S71.88,0,74.1,0h29.41s5,0,1.4,8.35S87.79,47.87,87.79,47.87s-.85,1.82-1.86,2.08-36.2,0-36.2,0Z"/><path class="cls-1" d="M128.26,1.4q10.47,0,16.05,3.64t5.57,11.4a14.84,14.84,0,0,1-1.49,6.93,12.14,12.14,0,0,1-4.33,4.71,20.56,20.56,0,0,1-6.93,2.68,45.18,45.18,0,0,1-9.35.86h-4.37V47.8h-8.73V2.52a44.76,44.76,0,0,1,6.75-.89C123.91,1.47,126.18,1.4,128.26,1.4Zm.63,7.22c-2.22,0-4,.07-5.48.2V24.47h4.23c4.2,0,7.44-.57,9.7-1.7s3.4-3.25,3.4-6.39a7.35,7.35,0,0,0-.9-3.78,6.46,6.46,0,0,0-2.5-2.39A12.09,12.09,0,0,0,133.56,9,27.55,27.55,0,0,0,128.89,8.62Z"/><path class="cls-1" d="M171.09,1.4Q181.49,1.4,187,5t5.51,11.14q0,9.34-9.64,12.66c.88,1,1.87,2.25,3,3.71s2.24,3,3.4,4.74,2.26,3.45,3.33,5.24,2,3.55,2.84,5.27h-9.77q-1.32-2.38-2.85-4.81t-3.08-4.7c-1-1.53-2.07-3-3.08-4.31s-2-2.55-2.85-3.62c-.64.05-1.2.07-1.66.07h-5.54V47.8h-8.74V2.52a48.43,48.43,0,0,1,6.8-.89C167.05,1.47,169.2,1.4,171.09,1.4Zm.63,7.22c-1.85,0-3.56.07-5.13.2V23.67h3.81a42.15,42.15,0,0,0,5.61-.33,12.33,12.33,0,0,0,4.06-1.19,6,6,0,0,0,2.46-2.33,7.44,7.44,0,0,0,.83-3.71,7.21,7.21,0,0,0-.83-3.58,6.14,6.14,0,0,0-2.39-2.32A11.73,11.73,0,0,0,176.43,9,27.53,27.53,0,0,0,171.72,8.62Z"/><path class="cls-1" d="M202.21,1.86h8.73V47.8h-8.73Z"/><path class="cls-1" d="M254.81,47.8q-2.35-3.78-5.26-8.12c-2-2.9-4-5.81-6-8.75s-4.2-5.79-6.35-8.55S233,17.13,231,14.92V47.8h-8.59V1.86h7.14q2.76,2.79,6,6.6T242,16.38q3.21,4.11,6.23,8.25t5.37,7.72V1.86h8.67V47.8Z"/><path class="cls-1" d="M307.21,1.86V9.09H292.44V47.8h-8.8V9.09H268.88V1.86Z"/><path class="cls-1" d="M313.86,47.8V1.86h30.36V9H322.59V20.69h19.2v7.09h-19.2v20Z"/></g></g></svg>